<?xml version="1.0" encoding="utf-8"?>
<!DOCTYPE svg PUBLIC "-//W3C//DTD SVG 1.1//EN" "http://www.w3.org/Graphics/SVG/1.1/DTD/svg11.dtd">
<svg version="1.1" id="Layer_1" xmlns="http://www.w3.org/2000/svg" xmlns:xlink="http://www.w3.org/1999/xlink" x="0px" y="0px"
	 width="169px" height="34px" viewBox="0 0 169 34" enable-background="new 0 0 169 34" xml:space="preserve">
<path fill="#FFFFFF" d="M98.955,23.733h-2.081V0.78h7.009c5.723,0,7.682,3.305,7.682,6.886s-1.959,6.886-7.682,6.886h-4.927V23.733z
	 M98.955,12.624h5.203c4.315,0,5.141-2.755,5.141-4.958s-0.827-4.958-5.141-4.958h-5.203V12.624z M119.193,10.023
	c-2.05,0-3.397,0.367-4.591,0.765V8.951c1.347-0.581,3.122-0.826,4.591-0.826c4.591,0,5.785,2.081,5.785,5.141v10.466h-1.194
	l-0.459-1.224c-1.377,1.01-3.091,1.53-4.621,1.53c-4.009,0-5.356-2.357-5.356-4.928c0-2.601,1.439-4.529,5.448-4.774l4.04-0.245
	v-0.857C122.835,11.002,122.04,10.023,119.193,10.023z M118.642,15.991c-2.173,0.214-3.122,1.347-3.122,3.121
	c0,1.377,0.337,3.03,3.244,3.03c1.653,0,2.754-0.46,4.07-1.224v-5.325L118.642,15.991z M131.71,19.449
	c-0.337,0.336-0.582,0.765-0.582,1.132c0,0.765,0.367,1.102,1.163,1.193l5.203,0.612c2.877,0.306,4.193,1.439,4.193,4.101
	c0,3.734-3.734,5.203-7.957,5.203c-4.285,0-6.855-1.255-6.855-4.621c0-2.081,1.439-3.459,3.153-4.04v-0.031
	c-0.582-0.398-0.979-1.01-0.979-2.02c0-0.856,0.52-1.56,1.163-2.081c-1.836-1.01-2.448-2.877-2.448-5.019
	c0-3.152,1.346-5.754,5.968-5.754c0.949,0,1.745,0.122,2.449,0.306h5.203v1.163l-2.571,0.735c0.643,0.979,0.887,2.203,0.887,3.55
	c0,3.153-1.347,5.754-5.968,5.754C132.965,19.633,132.291,19.571,131.71,19.449z M132.597,23.58c-2.02,0.46-3.734,1.408-3.734,3.367
	c0,2.265,1.714,2.908,4.866,2.908c3.061,0,5.937-0.765,5.937-3.367c0-1.561-0.735-2.173-2.601-2.388L132.597,23.58z M137.708,13.879
	c0-2.02-0.398-3.887-3.979-3.887s-3.978,1.867-3.978,3.887s0.398,3.886,3.978,3.886S137.708,15.899,137.708,13.879z M149.206,8.125
	c5.203,0,5.815,3.55,5.815,7.957v0.979h-10.1c0.123,2.662,0.827,5.081,4.285,5.081c2.203,0,3.55-0.214,5.05-0.857v1.836
	c-1.714,0.765-3.55,0.918-5.05,0.918c-5.172,0-6.427-3.55-6.427-7.957S144.033,8.125,149.206,8.125z M144.921,15.317h7.957
	c0-2.724-0.153-5.295-3.673-5.295C145.655,10.023,145.013,12.563,144.921,15.317z M163.191,14.95
	c4.346,0.398,5.387,1.867,5.387,4.376c0,2.356-1.5,4.713-6.151,4.713c-1.469,0-3.581-0.368-4.56-0.765v-1.836
	c0.949,0.336,2.418,0.704,4.591,0.704c3.183,0,4.04-1.347,4.04-2.785c0-1.408-0.429-2.387-3.458-2.632
	c-4.438-0.398-5.356-1.959-5.356-4.07c0-2.173,1.408-4.529,5.723-4.529c1.438,0,3.06,0.183,4.407,0.765v1.837
	c-1.193-0.398-2.387-0.704-4.438-0.704c-3.03,0-3.673,1.133-3.673,2.632C159.703,14.001,160.253,14.705,163.191,14.95z
	 M17.184,10.327H9.687c-0.194,0-0.35,0.157-0.35,0.35v3.666c0,0.193,0.157,0.35,0.35,0.35h2.925v4.555c0,0-0.657,0.223-2.472,0.223
	c-2.142,0-5.134-0.783-5.134-7.362c0-6.582,3.116-7.447,6.041-7.447c2.532,0,3.623,0.446,4.317,0.66
	c0.218,0.067,0.42-0.15,0.42-0.344l0.837-3.541c0-0.09-0.031-0.199-0.134-0.274C16.204,0.963,14.484,0,10.139,0
	C5.134,0,0,2.129,0,12.366c0,10.241,5.878,11.766,10.832,11.766c4.102,0,6.589-1.752,6.589-1.752c0.102-0.057,0.114-0.2,0.114-0.265
	V10.678C17.535,10.484,17.378,10.327,17.184,10.327z M56.129,1.226c0-0.195-0.155-0.352-0.349-0.352h-4.221
	c-0.193,0-0.349,0.157-0.349,0.352c0,0.001,0.001,8.158,0.001,8.158h-6.58V1.226c0-0.195-0.156-0.352-0.349-0.352h-4.221
	c-0.192,0-0.349,0.157-0.349,0.352v22.095c0,0.194,0.157,0.353,0.349,0.353h4.221c0.193,0,0.349-0.158,0.349-0.353v-9.453h6.58
	c0,0-0.012,9.452-0.012,9.453c0,0.194,0.157,0.353,0.349,0.353h4.232c0.193,0,0.348-0.158,0.349-0.353V1.226z M25.303,4.125
	c0-1.52-1.218-2.748-2.722-2.748c-1.502,0-2.722,1.228-2.722,2.748c0,1.519,1.22,2.751,2.722,2.751
	C24.085,6.876,25.303,5.644,25.303,4.125z M25.002,18.657c0-0.566,0-10.197,0-10.197c0-0.194-0.156-0.352-0.349-0.352h-4.208
	c-0.192,0-0.365,0.199-0.365,0.393c0,0,0,12.27,0,14.613c0,0.429,0.268,0.556,0.614,0.556c0,0,1.796,0,3.792,0
	c0.416,0,0.518-0.203,0.518-0.564C25.002,22.323,25.002,19.252,25.002,18.657z M72.511,8.141h-4.189
	c-0.192,0-0.349,0.158-0.349,0.353v10.831c0,0-1.064,0.779-2.575,0.779c-1.511,0-1.911-0.685-1.911-2.165c0-1.48,0-9.444,0-9.444
	c0-0.195-0.156-0.353-0.349-0.353h-4.251c-0.192,0-0.349,0.158-0.349,0.353c0,0,0,5.768,0,10.16c0,4.397,2.448,5.472,5.816,5.472
	c2.763,0,4.991-1.526,4.991-1.526s0.106,0.804,0.154,0.9c0.048,0.096,0.173,0.19,0.309,0.19l2.705-0.012
	c0.192,0,0.349-0.157,0.349-0.351L72.86,8.495C72.86,8.3,72.704,8.141,72.511,8.141z M84.19,7.645c-2.379,0-3.997,1.061-3.997,1.061
	v-7.48c0-0.195-0.156-0.352-0.348-0.352h-4.233c-0.193,0-0.349,0.157-0.349,0.352v22.095c0,0.194,0.156,0.353,0.349,0.353
	c0,0,2.937,0,2.937,0c0.132,0,0.232-0.069,0.306-0.188c0.073-0.118,0.178-1.018,0.178-1.018s1.732,1.64,5.009,1.64
	c3.847,0,6.053-1.952,6.053-8.764C90.094,8.535,86.571,7.645,84.19,7.645z M82.538,20.091c-1.453-0.045-2.438-0.704-2.438-0.704
	v-6.995c0,0,0.971-0.596,2.165-0.702c1.509-0.135,2.962,0.321,2.962,3.919C85.227,19.404,84.571,20.152,82.538,20.091z
	 M37.058,8.106h-3.166c0,0-0.005-4.183-0.005-4.184c0-0.158-0.081-0.238-0.265-0.238h-4.315c-0.168,0-0.258,0.074-0.258,0.235v4.322
	c0,0-2.162,0.522-2.309,0.564c-0.145,0.043-0.253,0.177-0.253,0.337v2.716c0,0.195,0.156,0.353,0.349,0.353h2.212
	c0,0,0,2.841,0,6.535c0,4.858,3.404,5.335,5.702,5.335c1.05,0,2.305-0.338,2.513-0.414c0.125-0.045,0.198-0.175,0.198-0.317
	l0.004-2.991c0-0.195-0.164-0.353-0.35-0.353c-0.184,0-0.657,0.076-1.142,0.076c-1.556,0-2.082-0.723-2.082-1.66
	c0-0.935-0.001-6.211-0.001-6.211h3.167c0.193,0,0.349-0.158,0.349-0.353V8.458C37.407,8.263,37.25,8.106,37.058,8.106z"/>
</svg>
